# xmcd
#
# Track frame offsets:
#	150
#	14250
#	29811
#	44627
#	59062
#	73122
#	93302
#	112013
#	127763
#	141113
#	157079
#	172602
#	192636
#	203959
#	217875
#
# Disc length: 3094 seconds
#
# Revision: 1
# Processed by: cddbd v1.5.2PL0 Copyright (c) Steve Scherf et al.
# Submitted via: audiograbber 1.83.01
#
DISCID=e20c140f
DTITLE=Edith Piaf - Selections
DYEAR=2007
DGENRE=
TTITLE0=La vie en rose
TTITLE1=L'hymne a l'amour
TTITLE2=Padam Padam
TTITLE3=Plus bleu que tes yeux
TTITLE4=Jezebel
TTITLE5=Monsieur Saint Pierre
TTITLE6=Les trois cloches
TTITLE7=Mon legionnaire
TTITLE8=Bal dans ma rue
TTITLE9=Elle frequentait la rue Pigalle
TTITLE10=Le fanion de la legion
TTITLE11=Mariage
TTITLE12=Dans les prisons de Nantes
TTITLE13=Notre Dame de Paris
TTITLE14=L'accordeoniste
EXTD=Fox-Music
EXTT0=
EXTT1=
EXTT2=
EXTT3=
EXTT4=
EXTT5=
EXTT6=
EXTT7=
EXTT8=
EXTT9=
EXTT10=
EXTT11=
EXTT12=
EXTT13=
EXTT14=
PLAYORDER=
